<?xml version="1.0" encoding="UTF-8"?>
<svg width="1200pt" height="1200pt" version="1.1" viewBox="0 0 1200 1200" xmlns="http://www.w3.org/2000/svg">
  <g>
    <path
      d="m412.55 536.01 190.78-88.961 198.67 92.641-29.285 13.656-167.66-78.184-165.91 77.367 1.5781-3.3828zm-51.758-24.137-31.105-14.504 161.5-75.305-210.11-97.977-0.0625 0.13672-47.191-75.105 87.746-12.109 0.089844-0.19531 283.4 132.15 282.61-131.78-0.007813-0.011719 0.027344 0.003906 0.76953-0.35938 0.23047 0.49609 86.84 11.984-46.637 74.227 0.24219 0.52344-210.2 98.02 167.66 78.184-32.824 15.305-198.68-92.641 239-111.45-18.492-39.648-272.27 126.96-272.27-126.96-18.488 39.648 239 111.45z" />
    <path
      d="m602.77 666.12-373.41-174.12-25.355 54.379 327.78 152.85-327.78 152.84 25.355 54.379 373.41-174.12 379.81 177.11 25.359-54.379-334.18-155.83 327.78-152.85-25.355-54.379zm389.95-221.62-0.007813-0.015625 0.035157 0.003907 1.0547-0.49219 0.31641 0.67969 119.1 16.438-63.961 101.8 0.33203 0.71484-288.28 134.43 288.28 134.43-0.23438 0.50391 64.387 102.47-119.88 16.543-0.054687 0.11328-0.17578-0.082032-0.39062 0.054688 0.089843-0.19531-388.19-181.02-388.13 180.99 0.10547 0.22266-0.44922-0.0625-0.19141 0.089844-0.058594-0.125-119.8-16.531 64.34-102.41-0.26562-0.57031 288.29-134.43-288.16-134.37-0.085938 0.1875-64.719-103 120.34-16.609 0.12891-0.26953 388.66 181.24z" />
  </g>
</svg>